<svg width="64" height="64" viewBox="0 0 64 64" fill="none" xmlns="http://www.w3.org/2000/svg">
<path d="M13.293 6.5C9.64122 6.5 6.93912 9.6962 7.06007 13.1625C7.17614 16.4927 7.02536 20.8056 5.93953 24.3229C4.85044 27.8505 3.00854 30.0851 0 30.372V33.6111C3.00854 33.898 4.85044 36.1325 5.93953 39.6601C7.02536 43.1774 7.17614 47.4904 7.06007 50.8205C6.93912 54.2863 9.64122 57.4831 13.2936 57.4831H50.7119C54.3637 57.4831 57.0652 54.2868 56.9443 50.8205C56.8282 47.4904 56.979 43.1774 58.0648 39.6601C59.1544 36.1325 60.9915 33.898 64 33.6111V30.372C60.9915 30.0851 59.1544 27.8505 58.0648 24.3229C56.979 20.8062 56.8282 16.4927 56.9443 13.1625C57.0652 9.69675 54.3637 6.5 50.7119 6.5H13.2925H13.293ZM43.3898 37.8833C43.3898 42.6562 39.8297 45.5508 33.9216 45.5508H23.8644C23.2653 45.5508 22.7797 45.0652 22.7797 44.4661V19.5169C22.7797 18.9179 23.2653 18.4322 23.8644 18.4322H33.8641C38.7905 18.4322 42.0236 21.1007 42.0236 25.1978C42.0236 28.0734 39.8487 30.6481 37.0777 31.0988V31.249C40.8499 31.6628 43.3898 34.2749 43.3898 37.8833ZM32.8249 21.8708H27.0904V29.9706H31.9203C35.654 29.9706 37.7128 28.4672 37.7128 25.7797C37.7128 23.2615 35.9425 21.8708 32.8249 21.8708ZM27.0904 33.1847V42.1111H33.0359C36.9231 42.1111 38.9825 40.5513 38.9825 37.6197C38.9825 34.6877 36.8656 33.1842 32.7859 33.1842H27.0904V33.1847Z" fill="#7E13F8"/>
<path d="M43.3897 37.8833C43.3897 42.6562 39.8296 45.5508 33.9215 45.5508H23.8643C23.2652 45.5508 22.7795 45.0652 22.7795 44.4661V19.5169C22.7795 18.9178 23.2652 18.4322 23.8643 18.4322H33.864C38.7904 18.4322 42.0235 21.1007 42.0235 25.1978C42.0235 28.0734 39.8486 30.6481 37.0776 31.0988V31.249C40.8498 31.6628 43.3897 34.2749 43.3897 37.8833ZM32.8248 21.8708H27.0903V29.9706H31.9202C35.6538 29.9706 37.7127 28.4672 37.7127 25.7797C37.7127 23.2615 35.9424 21.8708 32.8248 21.8708ZM27.0903 33.1847V42.1111H33.0358C36.923 42.1111 38.9824 40.5512 38.9824 37.6197C38.9824 34.6876 36.8655 33.1842 32.7858 33.1842H27.0903V33.1847Z" fill="white"/>
</svg>
