<svg width="69" height="64" viewBox="0 0 69 64" fill="none" xmlns="http://www.w3.org/2000/svg">
<g clip-path="url(#clip0_51_126)">
<path d="M43.2 30.4L16 25.6V61.0672C16 62.687 17.3131 64 18.9328 64H65.8672C67.4869 64 68.8 62.687 68.8 61.0672V48L43.2 30.4Z" fill="#185C37"/>
<path d="M43.2 0H18.9328C17.3131 0 16 1.31305 16 2.93279V16L43.2 32L57.6 36.8L68.8 32V16L43.2 0Z" fill="#21A366"/>
<path d="M16 16H43.2V32H16V16Z" fill="#107C41"/>
<path opacity="0.1" d="M35.4669 12.8H16V52.8H35.4669C37.0844 52.7947 38.3944 51.4847 38.3997 49.8672V15.7328C38.3944 14.1152 37.0844 12.8052 35.4669 12.8Z" fill="#80B485"/>
<path opacity="0.2" d="M33.8672 14.4H16V54.4H33.8672C35.4847 54.3947 36.7947 53.0847 36.8 51.4672V17.3328C36.7947 15.7152 35.4847 14.4052 33.8672 14.4Z" fill="#80B485"/>
<path opacity="0.2" d="M33.8672 14.4H16V51.2H33.8672C35.4847 51.1947 36.7947 49.8847 36.8 48.2672V17.3328C36.7947 15.7152 35.4847 14.4052 33.8672 14.4Z" fill="#80B485"/>
<path opacity="0.2" d="M32.2672 14.4H16V51.2H32.2672C33.8847 51.1947 35.1947 49.8847 35.2 48.2672V17.3328C35.1947 15.7152 33.8847 14.4052 32.2672 14.4Z" fill="#80B485"/>
<path d="M2.93279 14.4H32.2672C33.8869 14.4 35.2 15.713 35.2 17.3328V46.6671C35.2 48.2869 33.8869 49.5999 32.2672 49.5999H2.93279C1.31305 49.6 0 48.2869 0 46.6672V17.3328C0 15.713 1.31305 14.4 2.93279 14.4Z" fill="url(#paint0_linear_51_126)"/>
<path d="M9.08374 41.5325L15.2533 31.9725L9.60055 22.4653H14.1477L17.2325 28.5453C17.5173 29.1229 17.7125 29.5517 17.8181 29.8348H17.8581C18.0608 29.374 18.2741 28.9266 18.4981 28.4924L21.7957 22.4685H25.9701L20.1733 31.9197L26.1173 41.5324H21.6757L18.1125 34.8589C17.9447 34.5749 17.8023 34.2767 17.687 33.9677H17.6342C17.5298 34.2704 17.3913 34.5603 17.2213 34.8317L13.5526 41.5325H9.08374Z" fill="white"/>
<path d="M65.8672 0H43.2V16H68.7999V2.93279C68.7999 1.31305 67.4869 0 65.8672 0Z" fill="#33C481"/>
<path d="M43.2 32H68.7999V48H43.2V32Z" fill="#107C41"/>
</g>
<defs>
<linearGradient id="paint0_linear_51_126" x1="6.11495" y1="12.1083" x2="29.0851" y2="51.8916" gradientUnits="userSpaceOnUse">
<stop stop-color="#18884F"/>
<stop offset="0.5" stop-color="#117E43"/>
<stop offset="1" stop-color="#0B6631"/>
</linearGradient>
<clipPath id="clip0_51_126">
<rect width="68.8" height="64" fill="white"/>
</clipPath>
</defs>
</svg>
