<svg width="64" height="68" viewBox="0 0 64 68" fill="none" xmlns="http://www.w3.org/2000/svg">
<path d="M63.964 15.2563C63.9878 15.3461 64 15.4388 64 15.5319V30.0072C64 30.3854 63.8025 30.7347 63.4818 30.9228L51.6125 37.9181V51.7824C51.6125 51.9679 51.5649 52.1502 51.4745 52.3109C51.384 52.4716 51.2538 52.6052 51.097 52.6982L26.32 67.2976C26.2633 67.3304 26.2015 67.3514 26.1395 67.3741C26.1162 67.3818 26.0945 67.3964 26.07 67.4031C25.8968 67.4498 25.7147 67.4498 25.5415 67.4031C25.513 67.3954 25.4873 67.3793 25.4603 67.3688C25.4035 67.3475 25.3443 67.3291 25.2903 67.2976L0.51825 52.698C0.360835 52.6055 0.230035 52.4721 0.139045 52.3114C0.0480551 52.1506 9.38407e-05 51.9682 0 51.7824L0 8.35644C0 8.26125 0.013 8.16887 0.036 8.07931C0.04375 8.04886 0.06175 8.02122 0.07225 7.99077C0.0915 7.9355 0.10975 7.87869 0.138 7.82726C0.15725 7.79297 0.1855 7.76533 0.20875 7.7336C0.2385 7.69138 0.2655 7.64788 0.30025 7.61077C0.33 7.58058 0.36875 7.55806 0.40225 7.5317C0.43975 7.49997 0.473 7.46568 0.5155 7.44061H0.51675L12.9032 0.141023C13.0601 0.0486284 13.2379 0 13.4189 0C13.5998 0 13.7776 0.0486284 13.9345 0.141023L26.321 7.44061H26.3235C26.3647 7.46722 26.3997 7.49997 26.437 7.53042C26.4705 7.55678 26.508 7.58058 26.5375 7.60975C26.5737 7.64788 26.5995 7.69164 26.6303 7.7336C26.6523 7.76533 26.682 7.79297 26.7 7.82726C26.7295 7.87997 26.7463 7.9355 26.767 7.99103C26.7773 8.02122 26.7952 8.04886 26.803 8.08059C26.8267 8.17041 26.839 8.2633 26.8393 8.35644V35.4795L37.1608 29.3962V15.5306C37.1608 15.4385 37.1737 15.3446 37.197 15.2563C37.206 15.2246 37.2228 15.197 37.233 15.1668C37.2537 15.1112 37.2717 15.0542 37.3 15.003C37.3192 14.9687 37.3475 14.9411 37.3698 14.9093C37.4005 14.8671 37.4263 14.8236 37.4622 14.7865C37.4922 14.7563 37.5295 14.7338 37.563 14.7074C37.6017 14.6757 37.6353 14.6414 37.6765 14.6163H37.6777L50.0655 7.31675C50.2223 7.22423 50.4001 7.17553 50.5811 7.17553C50.7621 7.17553 50.9399 7.22423 51.0967 7.31675L63.4832 14.6163C63.527 14.6427 63.5605 14.6757 63.5993 14.7059C63.6313 14.7325 63.6688 14.7563 63.6985 14.7852C63.7345 14.8236 63.7603 14.8671 63.791 14.9093C63.8145 14.9411 63.8428 14.9687 63.861 15.003C63.8905 15.0542 63.9072 15.1112 63.9277 15.1668C63.9395 15.197 63.9562 15.2246 63.964 15.2563ZM61.9352 29.3964V17.3592L57.6005 19.9133L51.6123 23.4426V35.4797L61.9365 29.3964H61.9352ZM49.5488 51.1716V39.1259L43.6582 42.5695L26.838 52.3958V64.5542L49.5488 51.1711V51.1716ZM2.06475 10.1835V51.1716L24.773 64.5532V52.397L12.91 45.5248L12.9062 45.5222L12.9012 45.5197C12.8612 45.4959 12.8275 45.4616 12.7902 45.4327C12.7577 45.4061 12.7205 45.3851 12.6923 45.3559L12.6897 45.3521C12.6562 45.3191 12.633 45.2781 12.6047 45.2413C12.5787 45.2054 12.548 45.1752 12.5273 45.1384L12.526 45.1343C12.5028 45.0949 12.4885 45.0473 12.4718 45.0025C12.455 44.9629 12.4333 44.9258 12.4228 44.8838V44.8825C12.41 44.8323 12.4075 44.7794 12.4023 44.7279C12.3973 44.6885 12.3868 44.6489 12.3868 44.6092V16.2671L6.3995 12.7363L2.06475 10.185V10.1835ZM13.4202 2.27568L3.09975 8.35644L13.4178 14.437L23.7367 8.35491L13.4178 2.27568H13.4202ZM18.7873 40.224L24.7743 36.6963V10.1835L20.44 12.7378L14.4513 16.2668V42.7793L18.7873 40.224ZM50.581 9.45141L40.262 15.5319L50.581 21.6127L60.8988 15.5306L50.5812 9.45141H50.581ZM49.5485 23.4426L43.5602 19.9133L39.2257 17.3592V29.3964L45.2127 32.9244L49.5488 35.4797V23.4426H49.5485ZM25.8043 50.5687L40.94 41.724L48.506 37.3043L38.1945 31.2276L26.3223 38.2237L15.5017 44.6L25.8043 50.5687Z" fill="#FF2D20"/>
</svg>
