<svg width="64" height="64" viewBox="0 0 64 64" fill="none" xmlns="http://www.w3.org/2000/svg">
<ellipse cx="32" cy="31.9307" rx="31.25" ry="16.4307" fill="url(#paint0_radial_23_387)"/>
<ellipse cx="32" cy="31.9307" rx="30.0293" ry="15.21" fill="#6181B6"/>
<path fill-rule="evenodd" clip-rule="evenodd" d="M38.0791 36.8623L39.5684 29.1963C39.9102 27.4629 39.6172 26.1689 38.7383 25.3633C37.8838 24.582 36.419 24.1914 34.2705 24.1914H31.6826L32.4151 20.3828C32.4395 20.2363 32.4151 20.0898 32.3174 19.9678C32.2197 19.8457 32.0977 19.7969 31.9512 19.7969H28.3867C28.1426 19.7969 27.9473 19.9678 27.8985 20.1875L26.3115 28.3174C26.1651 27.3896 25.8233 26.6084 25.2373 25.9736C24.1875 24.7773 22.5518 24.167 20.3301 24.167H13.4697C13.2256 24.167 13.0303 24.3379 12.9815 24.5576L9.78322 41.0615C9.75881 41.208 9.78322 41.3545 9.88088 41.4766C9.97853 41.5986 10.1006 41.6475 10.2471 41.6475H13.836C14.0801 41.6475 14.2754 41.4766 14.3242 41.2568L15.1055 37.2773H17.7666C19.1582 37.2773 20.3545 37.1309 21.2578 36.8379C22.21 36.5205 23.0645 36.0078 23.8213 35.2998C24.4317 34.7383 24.9444 34.1035 25.335 33.4199L24.7002 36.7158C24.6758 36.8623 24.7002 37.0088 24.7979 37.1309C24.8955 37.2529 25.0176 37.3018 25.1641 37.3018H28.7285C28.9727 37.3018 29.168 37.1309 29.2168 36.9111L30.9746 27.8779H33.416C34.4658 27.8779 34.7588 28.0732 34.8565 28.1709C34.9297 28.2441 35.0762 28.5371 34.9053 29.4404L33.4893 36.7402C33.4649 36.8867 33.4893 37.0332 33.5869 37.1553C33.6846 37.2773 33.8067 37.3262 33.9531 37.3262H37.6152C37.835 37.2529 38.0303 37.082 38.0791 36.8623V36.8623ZM21.5752 30.5146C21.3555 31.6621 20.9404 32.4922 20.3301 32.9561C19.7197 33.4199 18.7188 33.6641 17.4004 33.6641H15.8135L16.961 27.7559H19.0117C20.5254 27.7559 21.1358 28.0732 21.3799 28.3418C21.6973 28.7324 21.7705 29.4893 21.5752 30.5146V30.5146Z" fill="white"/>
<path fill-rule="evenodd" clip-rule="evenodd" d="M53.3135 25.9736C52.2637 24.7773 50.6279 24.167 48.4063 24.167H41.4971C41.2529 24.167 41.0576 24.3379 41.0088 24.5576L37.8106 41.0371C37.7861 41.1836 37.8106 41.3301 37.9082 41.4521C38.0059 41.5742 38.1279 41.623 38.2744 41.623H41.8633C42.1074 41.623 42.3028 41.4521 42.3516 41.2324L43.1328 37.2529H45.794C47.1856 37.2529 48.3819 37.1064 49.2852 36.8135C50.2373 36.4961 51.0918 35.9834 51.8486 35.2754C52.4834 34.6895 53.0205 34.0303 53.4111 33.3223C53.8018 32.6143 54.0947 31.833 54.2656 30.9785C54.6807 28.8545 54.3633 27.1943 53.3135 25.9736V25.9736ZM49.5781 30.5146C49.3584 31.6621 48.9434 32.4922 48.333 32.9561C47.7227 33.4199 46.7217 33.6641 45.4033 33.6641H43.8164L44.9639 27.7559H47.0146C48.5283 27.7559 49.1387 28.0732 49.3828 28.3418C49.7246 28.7324 49.7979 29.4893 49.5781 30.5146V30.5146Z" fill="white"/>
<path fill-rule="evenodd" clip-rule="evenodd" d="M19.0117 27.2676C20.3789 27.2676 21.2822 27.5117 21.7461 28.0244C22.21 28.5371 22.3076 29.3916 22.0635 30.6123C21.8193 31.8818 21.3311 32.8096 20.623 33.3467C19.915 33.8838 18.8408 34.1523 17.4004 34.1523H15.2275L16.5703 27.2676H19.0117V27.2676ZM10.2715 41.1348H13.8604L14.7148 36.7646H17.791C19.1582 36.7646 20.2568 36.6182 21.1357 36.3252C22.0146 36.0322 22.7959 35.5684 23.5283 34.8848C24.1387 34.3232 24.627 33.7129 24.9932 33.0537C25.3594 32.3945 25.6279 31.6621 25.7744 30.8564C26.165 28.9033 25.8721 27.3896 24.9199 26.291C23.9678 25.1924 22.4541 24.6553 20.3789 24.6553H13.4697L10.2715 41.1348V41.1348Z" fill="#000004"/>
<path fill-rule="evenodd" clip-rule="evenodd" d="M28.4111 20.2852H31.9756L31.1211 24.6553H34.2949C36.2969 24.6553 37.6641 24.9971 38.4209 25.7051C39.1777 26.4131 39.3975 27.5361 39.1045 29.0986L37.6152 36.7646H34.002L35.418 29.4648C35.5889 28.6348 35.5156 28.0732 35.2471 27.7803C34.9785 27.4873 34.3682 27.3164 33.4648 27.3164H30.6084L28.7773 36.7646H25.2129L28.4111 20.2852V20.2852Z" fill="#000004"/>
<path fill-rule="evenodd" clip-rule="evenodd" d="M47.0146 27.2676C48.3818 27.2676 49.2852 27.5117 49.749 28.0244C50.2129 28.5371 50.3105 29.3916 50.0664 30.6123C49.8223 31.8818 49.334 32.8096 48.626 33.3467C47.918 33.8838 46.8438 34.1523 45.4033 34.1523H43.2305L44.5732 27.2676H47.0146V27.2676ZM38.2744 41.1348H41.8633L42.7178 36.7646H45.7939C47.1611 36.7646 48.2598 36.6182 49.1387 36.3252C50.0176 36.0322 50.7988 35.5684 51.5312 34.8848C52.1416 34.3232 52.6299 33.7129 52.9961 33.0537C53.3623 32.3945 53.6309 31.6621 53.7773 30.8564C54.168 28.9033 53.875 27.3896 52.9229 26.291C51.9707 25.1924 50.457 24.6553 48.3818 24.6553H41.4727L38.2744 41.1348V41.1348Z" fill="#000004"/>
<defs>
<radialGradient id="paint0_radial_23_387" cx="0" cy="0" r="1" gradientUnits="userSpaceOnUse" gradientTransform="translate(19.5126 21.2782) scale(88.6368 46.6036)">
<stop stop-color="white"/>
<stop offset="0.5" stop-color="#4C6B97"/>
<stop offset="1" stop-color="#231F20"/>
</radialGradient>
</defs>
</svg>
