<svg width="69" height="64" viewBox="0 0 69 64" fill="none" xmlns="http://www.w3.org/2000/svg">
<g clip-path="url(#clip0_51_140)">
<path d="M41.5993 35.1998L36.7993 0H36.4409C18.9869 0.0509561 4.85027 14.1875 4.79932 31.6414V31.9999L41.5993 35.1998Z" fill="#ED6C47"/>
<path d="M37.1577 0H36.7993V32L52.7993 38.4L68.7993 32V31.6416C68.7484 14.1876 54.6117 0.0509563 37.1577 0Z" fill="#FF8F6B"/>
<path d="M68.7993 32V32.352C68.7492 49.8099 54.6092 63.9499 37.1513 64H36.4473C18.9894 63.9499 4.84941 49.8099 4.79932 32.352V32H68.7993Z" fill="#D35230"/>
<path opacity="0.1" d="M38.3994 15.7281V49.8721C38.3914 51.0585 37.6724 52.1243 36.5754 52.5761C36.2261 52.7238 35.8507 52.8 35.4713 52.8001H12.3514C11.9034 52.2881 11.4714 51.7441 11.0714 51.2001C6.99503 45.7622 4.79405 39.1481 4.79935 32.3521V31.6481C4.79 25.5182 6.5815 19.5206 9.95135 14.4C10.3034 13.856 10.6713 13.312 11.0714 12.8H35.4713C37.0834 12.8123 38.3872 14.1161 38.3994 15.7281Z" fill="black"/>
<path opacity="0.2" d="M36.7994 17.3277V51.4717C36.7993 51.851 36.7231 52.2264 36.5754 52.5757C36.1237 53.6728 35.0578 54.3918 33.8714 54.3997H13.8074C13.3011 53.8858 12.8154 53.352 12.3514 52.7997C11.9034 52.2877 11.4714 51.7437 11.0714 51.1997C6.99503 45.7619 4.79405 39.1478 4.79935 32.3517V31.6477C4.79 25.5178 6.5815 19.5202 9.95135 14.3997H33.8714C35.4834 14.4119 36.7872 15.7157 36.7994 17.3277Z" fill="black"/>
<path opacity="0.2" d="M36.7993 17.3278V48.2718C36.7872 49.8838 35.4834 51.1876 33.8714 51.1998H11.0714C6.99503 45.762 4.79405 39.1479 4.79935 32.3518V31.6478C4.79 25.518 6.5815 19.5203 9.95135 14.3998H33.8713C35.4834 14.412 36.7872 15.7158 36.7993 17.3278Z" fill="black"/>
<path opacity="0.2" d="M35.1993 17.3278V48.2718C35.1872 49.8838 33.8834 51.1876 32.2714 51.1998H11.0714C6.99503 45.762 4.79405 39.1479 4.79935 32.3518V31.6478C4.79 25.518 6.5815 19.5203 9.95135 14.3998H32.2713C33.8834 14.412 35.1872 15.7158 35.1993 17.3278Z" fill="black"/>
<path d="M2.9328 14.3997H32.2673C33.8871 14.3997 35.2001 15.7128 35.2001 17.3325V46.6669C35.2001 48.2867 33.887 49.5997 32.2673 49.5997H2.9328C1.31308 49.5997 0 48.2867 0 46.667V17.3325C0 15.7128 1.31308 14.3997 2.9328 14.3997Z" fill="url(#paint0_linear_51_140)"/>
<path d="M17.9209 22.2224C19.8304 22.0935 21.7235 22.6482 23.2616 23.7872C24.5445 24.9325 25.23 26.6038 25.1208 28.32C25.1418 29.5131 24.8239 30.6876 24.204 31.7072C23.5765 32.7093 22.6724 33.5083 21.6008 34.008C20.3758 34.5778 19.0364 34.8591 17.6856 34.8304H13.9753V41.7264H10.1753V22.2224H17.9209ZM13.9721 31.8512H17.2425C18.2793 31.9274 19.308 31.6205 20.1337 30.9888C20.8166 30.3337 21.1746 29.4099 21.1113 28.4656C21.1113 26.3163 19.8622 25.2416 17.3641 25.2416H13.9721V31.8512H13.9721Z" fill="white"/>
</g>
<defs>
<linearGradient id="paint0_linear_51_140" x1="6.11498" y1="12.1081" x2="29.085" y2="51.8914" gradientUnits="userSpaceOnUse">
<stop stop-color="#CA4C28"/>
<stop offset="0.5" stop-color="#C5401E"/>
<stop offset="1" stop-color="#B62F14"/>
</linearGradient>
<clipPath id="clip0_51_140">
<rect width="68.8" height="64" fill="white"/>
</clipPath>
</defs>
</svg>
