<svg width="43" height="64" viewBox="0 0 43 64" fill="none" xmlns="http://www.w3.org/2000/svg">
<path d="M10.6667 64C16.5577 64 21.3333 59.2244 21.3333 53.3334V42.6667H10.6667C4.77563 42.6667 0 47.4423 0 53.3334C0 59.2244 4.77563 64 10.6667 64Z" fill="#0ACF83"/>
<path d="M0 32C0 26.1089 4.77563 21.3333 10.6667 21.3333H21.3333V42.6666H10.6667C4.77563 42.6666 0 37.891 0 32Z" fill="#A259FF"/>
<path d="M0 10.6667C0 4.77563 4.77563 0 10.6667 0H21.3333V21.3333H10.6667C4.77563 21.3333 0 16.5577 0 10.6667Z" fill="#F24E1E"/>
<path d="M21.3333 0H31.9999C37.891 0 42.6666 4.77563 42.6666 10.6667C42.6666 16.5577 37.891 21.3333 31.9999 21.3333H21.3333V0Z" fill="#FF7262"/>
<path d="M42.6666 32C42.6666 37.891 37.891 42.6666 31.9999 42.6666C26.1089 42.6666 21.3333 37.891 21.3333 32C21.3333 26.1089 26.1089 21.3333 31.9999 21.3333C37.891 21.3333 42.6666 26.1089 42.6666 32Z" fill="#1ABCFE"/>
</svg>
