<svg width="64" height="64" viewBox="0 0 64 64" fill="none" xmlns="http://www.w3.org/2000/svg">
<g clip-path="url(#clip0_49_41)">
<path fill-rule="evenodd" clip-rule="evenodd" d="M0 0H64V64H0V0Z" fill="#F7DF1E"/>
<path fill-rule="evenodd" clip-rule="evenodd" d="M16.828 53.4831L21.7257 50.5191C22.6706 52.1943 23.5301 53.6118 25.5918 53.6118C27.5681 53.6118 28.8141 52.8387 28.8141 49.8317V29.3822H34.8284V49.9168C34.8284 56.1461 31.177 58.9815 25.8496 58.9815C21.0384 58.9815 18.2455 56.4897 16.8279 53.4826" fill="black"/>
<path fill-rule="evenodd" clip-rule="evenodd" d="M38.0952 52.8386L42.9923 50.0032C44.2815 52.1085 45.957 53.655 48.9211 53.655C51.4131 53.655 53.0022 52.409 53.0022 50.6905C53.0022 48.6284 51.3698 47.898 48.6203 46.6955L47.1171 46.0506C42.7778 44.2037 39.8993 41.8838 39.8993 36.9862C39.8993 32.4753 43.3361 29.0383 48.7064 29.0383C52.53 29.0383 55.2794 30.3702 57.2554 33.8501L52.5726 36.8572C51.5415 35.01 50.4249 34.2798 48.7065 34.2798C46.9451 34.2798 45.828 35.3968 45.828 36.8572C45.828 38.6616 46.9451 39.3921 49.5225 40.5092L51.026 41.1535C56.1383 43.3447 59.0168 45.5784 59.0168 50.6046C59.0168 56.018 54.7638 58.982 49.0501 58.982C43.4652 58.982 39.8564 56.3186 38.0953 52.8386" fill="black"/>
</g>
<defs>
<clipPath id="clip0_49_41">
<rect width="64" height="64" fill="white"/>
</clipPath>
</defs>
</svg>
