<svg width="64" height="64" viewBox="0 0 64 64" fill="none" xmlns="http://www.w3.org/2000/svg">
<path fill-rule="evenodd" clip-rule="evenodd" d="M29.1975 32.7401C29.7942 31.2298 30.4458 29.5804 30.2374 28.0651C30.1068 27.117 29.4885 26.0866 28.81 25.6548C28.7972 25.647 28.765 25.6227 28.7304 25.5965C28.6892 25.5654 28.6448 25.5318 28.6259 25.5207C28.1238 25.2299 27.3198 24.9848 26.76 24.9271C23.8739 24.6311 22.1522 25.9134 21.1625 27.641C20.7731 28.3196 20.5153 29.0608 20.3143 29.8463C20.0921 30.7163 19.9326 31.7714 20.0599 32.7299C20.1362 33.304 20.4517 34.12 20.908 34.5958C21.9137 35.644 23.7843 35.6311 25.8546 35.6169C26.0974 35.6152 26.3431 35.6135 26.5904 35.6135C27.3122 35.6135 29.0432 35.5991 29.5656 35.5855C29.7344 35.5804 30.2187 33.6094 30.1755 33.5457C30.1565 33.5233 30.0257 33.5254 29.8264 33.5287C29.5897 33.5326 29.2564 33.5381 28.8991 33.5059C28.9938 33.2557 29.0948 32.9999 29.1975 32.7401ZM27.4137 30.7131C27.3639 30.878 27.3143 31.042 27.2689 31.2032L27.2188 31.381C27.022 32.0799 26.8249 32.7798 26.5904 33.4084C26.3151 33.4068 26.043 33.4114 25.778 33.416C24.3929 33.4397 23.2024 33.4601 22.7738 32.5602C22.4855 31.9538 22.6153 31.1328 22.7738 30.3551C22.9867 29.3077 23.1902 28.5469 23.7917 27.8955C24.2565 27.3926 25.426 26.776 26.6753 27.2171C27.09 27.3637 27.7329 28.0618 27.7778 28.8284C27.8109 29.3999 27.61 30.0642 27.4137 30.7131Z" fill="#1A1918"/>
<path d="M60.5299 25.9304L63.1447 25.9448C63.1447 25.9448 58.2832 32.5322 57.8863 33.0691C57.8486 33.12 57.8051 33.172 57.7599 33.2261C57.6509 33.3566 57.5324 33.4985 57.4622 33.6628C57.2112 34.2471 56.9534 35.5287 56.9534 35.5287L54.5609 35.5406C54.5609 35.5406 54.9331 34.2047 54.9178 33.4932C54.9086 33.0677 54.757 32.6426 54.6052 32.2168C54.5352 32.0205 54.4651 31.824 54.409 31.6273C54.2291 30.9963 53.9849 29.7614 53.9849 29.7614H56.4445L56.7837 31.1184L60.5299 25.9304Z" fill="#1A1918"/>
<path d="M55.5786 27.3197C56.0612 27.6106 56.3573 29.2153 56.3573 29.2153C56.3573 29.2153 53.8324 29.2525 52.4583 29.2525H51.2709L49.8291 35.5287H47.624C47.624 35.5287 48.9963 28.7081 49.3203 27.4715C49.4112 27.1254 49.8826 27.1299 50.6791 27.1374C50.8038 27.1386 50.9364 27.1398 51.0767 27.1398H52.7331C52.9824 27.1398 53.2415 27.1324 53.4989 27.1251C54.3461 27.1008 55.1754 27.0771 55.5786 27.3197Z" fill="#1A1918"/>
<path fill-rule="evenodd" clip-rule="evenodd" d="M47.1364 32.143C47.1364 32.143 47.6716 29.7632 47.3908 28.7505C47.3748 28.6929 47.3591 28.6304 47.3431 28.5662C47.2897 28.3523 47.2316 28.1196 47.1364 27.9872C46.6742 27.3425 45.7276 27.1186 45.1008 27.0542C43.436 26.8837 42.0501 27.329 41.2843 27.9024L41.2439 27.9325C41.0302 28.0918 40.8502 28.226 40.6906 28.4113C40.6294 28.4824 40.5634 28.5621 40.5066 28.6444C40.4841 28.6762 40.4597 28.7033 40.4353 28.7305C40.4062 28.7628 40.3771 28.7952 40.3513 28.8352C40.3081 28.9009 40.2632 29.0025 40.2146 29.1125C40.1841 29.1815 40.1522 29.2539 40.1182 29.3229C40.0507 29.4602 39.9863 29.6207 39.9341 29.751L39.9272 29.7682C39.4676 30.9165 38.9986 33.0597 39.4184 34.1784C39.4804 34.3439 39.6186 34.5533 39.666 34.617C39.6869 34.645 39.7071 34.6746 39.7274 34.7042C39.7646 34.7587 39.8018 34.813 39.8425 34.8569C40.0723 35.1046 40.4125 35.2793 40.7754 35.3658C42.6134 35.8043 46.2882 35.6202 46.2882 35.6202L46.7386 33.6255C46.7386 33.6255 44.1382 33.7426 42.8957 33.5848C42.8729 33.5819 42.8452 33.5789 42.8135 33.5755C42.5869 33.5515 42.1601 33.5062 41.9271 33.3023C41.6964 33.1006 41.4242 32.623 41.6236 32.3126C41.7341 32.1398 42.1055 32.1422 42.4895 32.1447C42.5975 32.1454 42.7065 32.1461 42.811 32.143C44.3417 32.0963 47.1364 32.143 47.1364 32.143ZM45.0796 29.5069C45.3816 29.9734 45.3129 30.3763 45.3129 30.3763L42.0264 30.3551C42.0264 30.3551 41.9891 28.9353 43.9051 28.9956C44.5836 29.0168 44.8219 29.1092 45.0796 29.5069Z" fill="#1A1918"/>
<path d="M37.2768 27.1322L39.4149 27.1195C39.4149 27.1195 38.2234 32.7723 37.6161 35.5287H35.1564C34.9307 35.5287 34.7083 35.5324 34.4906 35.536C33.0505 35.5597 31.8209 35.58 31.2551 34.5109C30.7127 33.4851 31.0803 31.8917 31.3744 30.6166C31.4229 30.4064 31.4694 30.2048 31.5095 30.0158C31.7097 29.071 32.1313 27.1398 32.1313 27.1398L34.3466 27.1195C34.3466 27.1195 33.7206 30.1261 33.4602 31.6273C33.4394 31.747 33.4137 31.8652 33.3886 31.981C33.3007 32.3851 33.2193 32.7599 33.3754 33.0691C33.5663 33.4474 33.8334 33.4745 34.6476 33.4932C34.9055 33.4991 35.7502 33.4932 35.7502 33.4932L37.2768 27.1322Z" fill="#1A1918"/>
<path d="M19.6459 27.9466C19.5594 28.3615 19.4717 28.7817 19.3814 29.1677H17.0066C17.0798 28.8851 17.1461 28.6032 17.211 28.3272C17.3094 27.9091 17.4046 27.5046 17.5155 27.1322C17.8865 27.1322 18.2449 27.1346 18.6116 27.1371C18.9959 27.1397 19.3894 27.1423 19.8165 27.1423C19.7598 27.4005 19.7031 27.6724 19.6459 27.9466Z" fill="#1A1918"/>
<path d="M19.2116 29.7614H16.9218C16.8056 30.1431 16.1915 32.7112 15.9888 33.6628C15.9435 33.8761 15.9032 34.0904 15.8636 34.3015C15.5971 35.7203 15.3585 36.9914 13.7837 36.8009C13.7037 37.0951 13.6137 37.4356 13.5208 37.7869C13.4129 38.1951 13.3011 38.6177 13.1968 38.9993C13.396 39.0033 13.591 39.0104 13.7813 39.0173C14.2998 39.0362 14.7837 39.0538 15.2255 39.006C15.5969 38.9654 16.2678 38.8051 16.4129 38.6668C16.443 38.6381 16.4683 38.631 16.4953 38.6235C16.521 38.6163 16.5482 38.6087 16.5824 38.5819C17.3481 37.9838 17.5527 37.1634 17.8311 36.0472C17.8389 36.016 17.8468 35.9844 17.8547 35.9527C18.3195 34.0919 18.9123 31.4187 19.2116 29.7614Z" fill="#1A1918"/>
<path d="M10.3063 30.0658C10.6966 29.9827 11.5803 29.3179 11.7338 28.9659C10.4631 29.8306 9.65508 29.5881 9.24773 29.4659C9.23038 29.4607 9.21377 29.4557 9.19787 29.451C9.11214 29.4265 8.91374 29.3374 8.72888 29.2263C8.71607 29.2186 8.70346 29.211 8.69104 29.2036C8.30555 28.9721 8.10564 28.8521 7.79593 28.4018C7.62028 28.1467 7.44476 27.7411 7.38716 27.5087C7.2921 27.1245 7.31844 26.5334 7.49911 26.0245C6.89938 26.5597 6.80694 27.5936 7.00797 28.2772C7.03348 28.3637 7.17596 28.7038 7.25306 28.8284C7.77138 29.6622 8.76109 30.395 10.3063 30.0658Z" fill="#21609B"/>
<path d="M9.20382 32.3906C10.1911 32.3974 11.2224 31.9359 11.833 31.2881C11.2988 32.6443 9.75184 33.516 7.67724 33.2387C5.94029 33.0063 4.2856 31.2584 4.1151 29.5069C3.99046 28.2323 4.43479 27.4715 5.16683 26.5487C4.9124 27.0314 4.81733 27.4036 4.79362 27.641C4.51549 30.3983 6.99621 32.3762 9.20382 32.3906Z" fill="#21609B"/>
<path d="M11.5786 34.0869L11.5295 34.2141C10.6932 35.8424 9.21148 36.8416 7.09798 36.8856C6.10995 36.906 5.1685 36.6525 4.55356 36.3768C3.22633 35.7805 2.11007 34.6747 1.50039 33.4932C0.625873 31.7994 0.468186 29.4434 2.28655 27.6835C2.30056 27.6835 2.24543 27.7789 2.19029 27.8743C2.13515 27.9697 2.08002 28.0651 2.09402 28.0651L2.04398 28.228C0.733632 32.3303 4.77063 35.8459 8.69496 35.4438C9.63809 35.3472 10.8408 34.8307 11.5786 34.0869Z" fill="#21609B"/>
</svg>
