<svg width="64" height="64" viewBox="0 0 64 64" fill="none" xmlns="http://www.w3.org/2000/svg">
<g clip-path="url(#clip0_51_90)">
<path fill-rule="evenodd" clip-rule="evenodd" d="M18.3356 15.8963C17.8637 15.893 17.3934 15.9517 16.9368 16.0712V16.1367H17.0023C17.3281 16.6319 17.6936 17.0997 18.0952 17.5356C18.3648 18.082 18.6052 18.6285 18.8748 19.1749L18.9476 19.1021C19.2045 18.9037 19.4062 18.6428 19.5338 18.3444C19.6613 18.046 19.7103 17.7199 19.6762 17.3972C19.4722 17.1568 19.4431 16.9236 19.2682 16.6686C19.0934 16.4136 18.5906 16.2096 18.3356 15.8963Z" fill="#5D87A1"/>
<path fill-rule="evenodd" clip-rule="evenodd" d="M53.1177 45.5348C50.8696 45.374 48.6133 45.6995 46.5023 46.4892C45.985 46.6932 45.169 46.6932 45.1034 47.3417C45.373 47.6113 45.4094 48.0703 45.6498 48.4345C46.117 49.2228 46.7158 49.9251 47.4203 50.511C48.1489 51.0574 48.8774 51.6038 49.606 52.0774C50.932 52.9007 52.4329 53.3743 53.7298 54.1976C54.4583 54.6712 55.2306 55.2832 55.9811 55.8004C56.3526 56.07 56.5931 56.529 57.0666 56.682V56.58C56.8262 56.274 56.7606 55.8515 56.5275 55.4872L55.5002 54.5036C54.503 53.1806 53.3088 52.0184 51.9593 51.0574C50.8664 50.3288 48.4767 49.2797 48.0323 48.0265L47.9667 47.9537C48.7658 47.8416 49.5533 47.6587 50.32 47.4072C51.4785 47.1012 52.5057 47.1668 53.7298 46.8608C54.2762 46.7224 54.8153 46.5548 55.3691 46.3872V46.0812C54.7498 45.4692 54.3053 44.6241 53.6642 44.0704C51.8989 42.5294 50.0158 41.1287 48.0323 39.8811C46.9759 39.1962 45.6134 38.7518 44.4841 38.1762C44.0761 37.9722 43.3985 37.8702 43.1581 37.5278C42.5992 36.7036 42.1302 35.8218 41.7592 34.8976C40.7684 33.0252 39.8139 30.9487 38.9615 28.967C38.4576 27.6383 37.8787 26.3394 37.2275 25.0764C33.7085 19.2842 29.8907 15.7725 24.0257 12.3263C22.6404 11.6596 21.1692 11.1888 19.6542 10.9274C18.8018 10.9274 17.9494 10.8254 17.0969 10.789C16.5429 10.4343 16.019 10.0347 15.5305 9.59414C13.5925 8.36285 8.57989 5.70354 7.15188 9.21528C6.22658 11.401 8.51431 13.5867 9.29389 14.7379C9.95474 15.5327 10.5378 16.3891 11.0352 17.2952C11.2756 17.8781 11.3412 18.4901 11.5816 19.1021C12.0812 20.6607 12.6724 22.1885 13.3521 23.6775C13.7223 24.4104 14.1435 25.1164 14.6125 25.7904C14.8894 26.162 15.3411 26.3295 15.4722 26.9488C14.9914 27.6264 14.9549 28.6537 14.6854 29.5061C13.4905 33.3603 13.9349 38.1325 15.6762 40.9812C16.2154 41.8336 17.5122 43.7134 19.2535 42.9921C20.7908 42.3801 20.4484 40.4421 20.8928 38.7372C20.9948 38.3219 20.8928 38.0523 21.126 37.7828V37.8483C21.6068 38.8028 22.0804 39.7208 22.5248 40.6752C23.7407 42.4331 25.2401 43.9769 26.9619 45.2434C27.7779 45.8627 28.419 46.9191 29.4463 47.2907V47.1887H29.3807C29.1534 46.9252 28.8882 46.6968 28.5939 46.5111C27.9526 45.8746 27.3608 45.1902 26.8234 44.4638C25.3777 42.5063 24.1005 40.4297 23.0057 38.2563C22.4593 37.1999 21.9784 36.0706 21.5485 34.985C21.3445 34.577 21.3445 33.9577 21.0021 33.7537C20.3717 34.4631 19.8219 35.2401 19.3628 36.0706C18.7144 37.5278 18.6342 39.3492 18.4084 41.2216C18.2699 41.2581 18.3428 41.2216 18.2699 41.2872C17.1844 41.0176 16.8128 39.8956 16.3975 38.9412C15.3341 36.0144 15.227 32.8256 16.0915 29.834C16.3247 29.1054 17.3519 26.8687 16.9439 26.1911C16.7327 25.5427 16.0551 25.1711 15.6835 24.6611C15.2058 23.9725 14.7936 23.2407 14.4522 22.4754C13.6289 20.5374 13.2136 18.3953 12.3321 16.5156C11.8404 15.5915 11.27 14.7116 10.6272 13.8855C9.91708 13.0611 9.28763 12.1706 8.74746 11.2262C8.57988 10.8546 8.33945 10.2426 8.61631 9.83457C8.6373 9.7138 8.69828 9.6036 8.78946 9.52167C8.88064 9.43974 8.99671 9.39085 9.11903 9.38285C9.56346 9.01128 10.8239 9.48485 11.3048 9.69614C12.4663 10.1418 13.5755 10.7135 14.6125 11.401C15.0934 11.7362 15.6034 12.3846 16.2154 12.5594H16.9439C18.0295 12.7926 19.2608 12.625 20.2881 12.931C22.0131 13.5108 23.66 14.3012 25.1914 15.2843C29.7061 18.1605 33.3768 22.1831 35.8286 26.9415C36.2439 27.7211 36.4115 28.4424 36.7904 29.2584C37.5189 30.9341 38.3932 32.639 39.1072 34.271C39.734 35.8822 40.5458 37.4152 41.5261 38.8392C42.0361 39.5678 44.0834 39.9321 45.0087 40.2963C45.6863 40.6023 46.7427 40.8719 47.362 41.2435C48.5204 41.9721 49.6789 42.7808 50.7717 43.5677C51.3109 43.9757 53.0158 44.8281 53.125 45.513" fill="#00758F"/>
</g>
<defs>
<clipPath id="clip0_51_90">
<rect width="50.1333" height="49.2153" fill="white" transform="translate(6.93335 7.46667)"/>
</clipPath>
</defs>
</svg>
