<svg width="64" height="73" viewBox="0 0 64 73" fill="none" xmlns="http://www.w3.org/2000/svg">
<path fill-rule="evenodd" clip-rule="evenodd" d="M32 72.1159C31.0062 72.1159 30.0787 71.8509 29.2174 71.3872L20.4058 66.1532C19.0807 65.4244 19.7433 65.1594 20.1408 65.0269C21.9296 64.4306 22.2609 64.2981 24.1159 63.2381C24.3147 63.1056 24.5797 63.1718 24.7785 63.3043L31.5362 67.3458C31.8012 67.4783 32.1325 67.4783 32.3313 67.3458L58.766 52.0414C59.0311 51.9089 59.1636 51.6439 59.1636 51.3126V20.7702C59.1636 20.4389 59.0311 20.1739 58.766 20.0414L32.3313 4.80331C32.0663 4.67081 31.735 4.67081 31.5362 4.80331L5.10145 20.0414C4.83644 20.1739 4.70393 20.5052 4.70393 20.7702V51.3126C4.70393 51.5776 4.83644 51.9089 5.10145 52.0414L12.323 56.2153C16.2319 58.2029 18.6832 55.8841 18.6832 53.5652V23.4203C18.6832 23.0228 19.0145 22.6253 19.4783 22.6253H22.8571C23.2547 22.6253 23.6522 22.9565 23.6522 23.4203V53.5652C23.6522 58.7992 20.8033 61.8468 15.8344 61.8468C14.3106 61.8468 13.118 61.8468 9.73913 60.1905L2.78261 56.2153C1.06004 55.2215 0 53.3665 0 51.3789V20.8364C0 18.8489 1.06004 16.9938 2.78261 16L29.2174 0.695652C30.8737 -0.231884 33.1263 -0.231884 34.7826 0.695652L61.2174 16C62.94 16.9938 64 18.8489 64 20.8364V51.3789C64 53.3665 62.94 55.2215 61.2174 56.2153L34.7826 71.5197C33.9213 71.9172 32.9275 72.1159 32 72.1159ZM40.1491 51.1139C28.5549 51.1139 26.1698 45.8137 26.1698 41.3085C26.1698 40.911 26.501 40.5135 26.9648 40.5135H30.4099C30.8075 40.5135 31.1387 40.7785 31.1387 41.176C31.6687 44.6874 33.1925 46.4099 40.2153 46.4099C45.7805 46.4099 48.1656 45.1511 48.1656 42.1698C48.1656 40.4472 47.5031 39.1884 38.824 38.3271C31.6025 37.5983 27.0973 36.0083 27.0973 30.2443C27.0973 24.8778 31.6025 21.6977 39.1553 21.6977C47.6356 21.6977 51.8095 24.6128 52.3395 30.9731C52.3395 31.1718 52.2733 31.3706 52.1408 31.5694C52.0083 31.7019 51.8095 31.8344 51.6108 31.8344H48.1656C47.8344 31.8344 47.5031 31.5694 47.4369 31.2381C46.6418 27.5942 44.588 26.4017 39.1553 26.4017C33.06 26.4017 32.3313 28.5217 32.3313 30.1118C32.3313 32.0331 33.1925 32.6294 41.4079 33.6894C49.5569 34.7495 53.3996 36.2733 53.3996 41.971C53.3333 47.8012 48.5631 51.1139 40.1491 51.1139Z" fill="#539E43"/>
</svg>
