<svg width="64" height="64" viewBox="0 0 64 64" fill="none" xmlns="http://www.w3.org/2000/svg">
<g clip-path="url(#clip0_52_170)">
<path d="M11.3333 5.1585e-06H52.6667C54.1554 -0.00143394 55.6297 0.298246 57.0054 0.881893C58.3811 1.46554 59.631 2.3217 60.6837 3.40137C61.7363 4.48103 62.5711 5.76302 63.1402 7.17395C63.7092 8.58488 64.0014 10.0971 64 11.6239V52.3761C64.0014 53.903 63.7092 55.4151 63.1402 56.8261C62.5711 58.237 61.7363 59.519 60.6837 60.5986C59.631 61.6783 58.3811 62.5345 57.0054 63.1181C55.6297 63.7018 54.1554 64.0014 52.6667 64H11.3333C9.84463 64.0014 8.37026 63.7018 6.9946 63.1181C5.61894 62.5345 4.36901 61.6783 3.31633 60.5986C2.26366 59.519 1.4289 58.237 0.859846 56.8261C0.29079 55.4151 -0.00139809 53.903 5.02954e-06 52.3761V11.6239C-0.00139809 10.0971 0.29079 8.58488 0.859846 7.17395C1.4289 5.76302 2.26366 4.48103 3.31633 3.40137C4.36901 2.3217 5.61894 1.46554 6.9946 0.881893C8.37026 0.298246 9.84463 -0.00143394 11.3333 5.1585e-06Z" fill="#001E36"/>
<path d="M14.3999 44.882V16.7385C14.3999 16.547 14.4799 16.4376 14.6666 16.4376C15.1199 16.4376 15.5466 16.4376 16.1599 16.4103C16.7732 16.3829 17.4666 16.3829 18.1866 16.3555C18.9066 16.3282 19.6799 16.3282 20.5066 16.3008C21.3332 16.2735 22.1332 16.2735 22.9332 16.2735C25.1199 16.2735 26.9332 16.547 28.4266 17.1214C29.7652 17.5876 30.9859 18.3537 31.9999 19.3641C32.8592 20.2483 33.5231 21.3116 33.9466 22.482C34.3502 23.6219 34.5578 24.8249 34.5599 26.0376C34.5599 28.3897 34.0266 30.3316 32.9599 31.8632C31.8883 33.3928 30.3921 34.5556 28.6666 35.2C26.8532 35.8838 24.8532 36.1299 22.6666 36.1299C22.0266 36.1299 21.5999 36.1299 21.3332 36.1026C21.0666 36.0752 20.6932 36.0752 20.1866 36.0752V44.8547C20.1925 44.8997 20.1896 44.9455 20.178 44.9893C20.1664 45.0331 20.1463 45.0741 20.1189 45.1098C20.0916 45.1455 20.0575 45.1752 20.0187 45.1972C19.9799 45.2191 19.9373 45.2329 19.8932 45.2376H14.7199C14.5066 45.2376 14.3999 45.1282 14.3999 44.882ZM20.2132 21.7162V30.906C20.5866 30.9333 20.9332 30.9607 21.2532 30.9607H22.6666C23.7076 30.962 24.7424 30.7958 25.7332 30.4684C26.5833 30.212 27.3428 29.7085 27.9199 29.0188C28.4799 28.335 28.7466 27.4051 28.7466 26.2017C28.7717 25.347 28.5589 24.5027 28.1332 23.7675C27.6886 23.0574 27.0347 22.5112 26.2666 22.2085C25.2655 21.8064 24.1943 21.6202 23.1199 21.6615C22.4266 21.6615 21.8132 21.6615 21.3066 21.6889C20.9421 21.6644 20.5761 21.6736 20.2132 21.7162Z" fill="#31A8FF"/>
<path d="M51.1999 29.2376C50.3947 28.8027 49.5324 28.4894 48.6399 28.3077C47.6596 28.08 46.6583 27.9608 45.6532 27.9521C45.1135 27.933 44.5741 27.9976 44.0532 28.1436C43.721 28.2145 43.4264 28.4094 43.2265 28.6906C43.0918 28.9125 43.0181 29.1677 43.0132 29.429C43.0256 29.6892 43.1191 29.9385 43.2799 30.1402C43.5326 30.4442 43.8405 30.695 44.1865 30.8786C44.7999 31.2068 45.4399 31.5077 46.0799 31.7812C47.5206 32.2786 48.899 32.9488 50.1865 33.7778C51.0623 34.3425 51.7864 35.1229 52.2932 36.0478C52.7217 36.9204 52.9325 37.8883 52.9065 38.8649C52.9282 40.1577 52.5654 41.4265 51.8665 42.5025C51.1227 43.5943 50.0849 44.4402 48.8799 44.9367C47.5732 45.5111 45.9732 45.812 44.0532 45.812C42.8358 45.817 41.6209 45.6979 40.4265 45.4564C39.486 45.2897 38.5713 44.9954 37.7065 44.5812C37.6135 44.5333 37.5362 44.4587 37.4841 44.3663C37.432 44.274 37.4074 44.168 37.4132 44.0615V39.3025C37.4109 39.2558 37.4193 39.2092 37.4379 39.1664C37.4564 39.1236 37.4845 39.086 37.5199 39.0564C37.5574 39.0339 37.601 39.0245 37.6443 39.0294C37.6875 39.0343 37.728 39.0534 37.7599 39.0837C38.7871 39.7048 39.9028 40.1571 41.0665 40.4239C42.094 40.6981 43.1515 40.836 44.2132 40.8342C45.2265 40.8342 45.9465 40.6974 46.4265 40.4513C46.6406 40.3498 46.8221 40.1879 46.9496 39.9844C47.0771 39.781 47.1454 39.5444 47.1465 39.3025C47.1465 38.9196 46.9332 38.5641 46.5065 38.2085C46.0799 37.853 45.1999 37.4427 43.8932 36.9231C42.5527 36.4386 41.2797 35.7766 40.1065 34.9538C39.2709 34.343 38.5786 33.5488 38.0799 32.629C37.6543 31.7652 37.4436 30.8069 37.4665 29.8393C37.4705 28.6722 37.7839 27.5283 38.3732 26.5299C39.0506 25.4319 40.023 24.5582 41.1732 24.0137C42.4265 23.3573 43.9999 23.0564 45.8932 23.0564C46.9998 23.0567 48.1049 23.139 49.1999 23.3025C49.9872 23.4118 50.7578 23.6232 51.4932 23.9316C51.6104 23.9742 51.7063 24.0627 51.7599 24.1778C51.7906 24.2845 51.8085 24.3947 51.8132 24.506V28.9641C51.8136 29.0172 51.8018 29.0697 51.7786 29.1173C51.7554 29.1648 51.7216 29.206 51.6799 29.2376C51.5247 29.2948 51.355 29.2948 51.1999 29.2376Z" fill="#31A8FF"/>
</g>
<defs>
<clipPath id="clip0_52_170">
<rect width="64" height="64" fill="white"/>
</clipPath>
</defs>
</svg>
