<svg width="70" height="64" viewBox="0 0 70 64" fill="none" xmlns="http://www.w3.org/2000/svg">
<g clip-path="url(#clip0_51_113)">
<path d="M66.199 0H19.2646C17.6448 0 16.3318 1.31306 16.3318 2.93281V16L43.5318 24L69.1318 16V2.93281C69.1318 1.31306 67.8187 0 66.199 0Z" fill="#41A5EE"/>
<path d="M69.1318 16H16.3318V32L43.5318 36.8L69.1318 32V16Z" fill="#2B7CD3"/>
<path d="M16.3318 32V48L41.9318 51.2L69.1318 48V32H16.3318Z" fill="#185ABD"/>
<path d="M19.2646 64H66.1993C67.8191 64 69.1321 62.6869 69.1321 61.0672V48H16.3318V61.0672C16.3318 62.6869 17.6449 64 19.2646 64Z" fill="#103F91"/>
<path opacity="0.1" d="M35.799 12.8H16.3318V52.8H35.799C37.4165 52.7947 38.7265 51.4847 38.7318 49.8672V15.7328C38.7265 14.1152 37.4165 12.8053 35.799 12.8Z" fill="#808CB4"/>
<path opacity="0.2" d="M34.1988 14.4H16.3318V54.4H34.1988C35.8164 54.3947 37.1264 53.0847 37.1316 51.4672V17.3328C37.1264 15.7152 35.8164 14.4052 34.1988 14.4Z" fill="#808CB4"/>
<path opacity="0.2" d="M34.1988 14.4H16.3318V51.2H34.1988C35.8164 51.1947 37.1264 49.8847 37.1316 48.2672V17.3328C37.1264 15.7152 35.8164 14.4052 34.1988 14.4Z" fill="#808CB4"/>
<path opacity="0.2" d="M32.599 14.4H16.3318V51.2H32.599C34.2165 51.1947 35.5265 49.8847 35.5318 48.2672V17.3328C35.5265 15.7152 34.2165 14.4052 32.599 14.4Z" fill="#808CB4"/>
<path d="M3.2646 14.4H32.599C34.2187 14.4 35.5318 15.713 35.5318 17.3328V46.6672C35.5318 48.287 34.2187 49.6 32.599 49.6H3.2646C1.64485 49.6 0.331787 48.287 0.331787 46.6672V17.3328C0.331787 15.713 1.64485 14.4 3.2646 14.4Z" fill="url(#paint0_linear_51_113)"/>
<path d="M12.3671 36.8928C12.4247 37.3456 12.4631 37.7392 12.4807 38.0768H12.5478C12.5734 37.7568 12.6268 37.3712 12.7078 36.92C12.7889 36.4688 12.862 36.0875 12.9271 35.776L16.0119 22.4671H20.0007L23.2007 35.576C23.3866 36.3911 23.5197 37.2174 23.5991 38.0496H23.6519C23.7115 37.2433 23.8227 36.4417 23.9847 35.6496L26.5367 22.4607H30.1671L25.6839 41.5329H21.4423L18.4023 28.9023C18.3143 28.5391 18.2135 28.0639 18.1031 27.4799C17.9927 26.8959 17.9239 26.4687 17.8967 26.1999H17.8439C17.8087 26.5103 17.7399 26.9711 17.6375 27.5823C17.5351 28.1935 17.4529 28.6458 17.391 28.9391L14.5334 41.5296H10.2198L5.71265 22.4671H9.40863L12.1878 35.8032C12.2503 36.0768 12.3095 36.4416 12.3671 36.8928Z" fill="white"/>
</g>
<defs>
<linearGradient id="paint0_linear_51_113" x1="6.44674" y1="12.1083" x2="29.4169" y2="51.8916" gradientUnits="userSpaceOnUse">
<stop stop-color="#2368C4"/>
<stop offset="0.5" stop-color="#1A5DBE"/>
<stop offset="1" stop-color="#1146AC"/>
</linearGradient>
<clipPath id="clip0_51_113">
<rect width="68.8" height="64" fill="white" transform="translate(0.331787)"/>
</clipPath>
</defs>
</svg>
